<svg width="1801" height="464" viewBox="0 0 1801 464" fill="none" xmlns="http://www.w3.org/2000/svg">
<path d="M0 0H1801V464H0V0Z" fill="url(#paint0_linear)"/>
<path fill-rule="evenodd" clip-rule="evenodd" d="M1749.45 104.826C1748.34 103.722 1746.58 103.722 1745.47 104.826C1744.37 105.929 1744.37 107.695 1745.47 108.798C1746.58 109.902 1748.34 109.902 1749.45 108.798C1750.55 107.695 1750.55 105.929 1749.45 104.826Z" fill="white"/>
<path fill-rule="evenodd" clip-rule="evenodd" d="M1698.68 214.842C1697.58 213.738 1695.82 213.738 1694.71 214.842C1693.61 215.945 1693.61 217.711 1694.71 218.814C1695.82 219.918 1697.58 219.918 1698.68 218.814C1699.79 217.711 1699.79 215.945 1698.68 214.842Z" fill="white"/>
<path fill-rule="evenodd" clip-rule="evenodd" d="M1738.89 160.404C1738.37 159.889 1737.53 159.889 1737.01 160.404C1736.5 160.919 1736.5 161.765 1737.01 162.28C1737.53 162.795 1738.37 162.795 1738.89 162.28C1739.4 161.728 1739.4 160.919 1738.89 160.404Z" fill="white"/>
<path fill-rule="evenodd" clip-rule="evenodd" d="M1672.46 199.209C1671.94 198.694 1671.1 198.694 1670.58 199.209C1670.07 199.724 1670.07 200.57 1670.58 201.085C1671.1 201.6 1671.94 201.6 1672.46 201.085C1672.97 200.533 1672.97 199.724 1672.46 199.209Z" fill="white"/>
<path fill-rule="evenodd" clip-rule="evenodd" d="M1690 192.846C1689.49 192.331 1688.64 192.331 1688.13 192.846C1687.61 193.361 1687.61 194.207 1688.13 194.722C1688.64 195.237 1689.49 195.237 1690 194.722C1690.52 194.207 1690.52 193.361 1690 192.846Z" fill="white"/>
<path fill-rule="evenodd" clip-rule="evenodd" d="M1693.76 203.66C1693.5 203.402 1693.09 203.402 1692.84 203.66C1692.58 203.917 1692.58 204.322 1692.84 204.579C1693.09 204.837 1693.5 204.837 1693.76 204.579C1694.01 204.322 1694.01 203.917 1693.76 203.66Z" fill="white"/>
<path fill-rule="evenodd" clip-rule="evenodd" d="M1670.55 258.944C1670.03 258.429 1669.18 258.429 1668.67 258.944C1668.15 259.459 1668.15 260.305 1668.67 260.819C1669.18 261.334 1670.03 261.334 1670.55 260.819C1671.06 260.305 1671.06 259.459 1670.55 258.944Z" fill="white"/>
<path d="M1564.83 231.614C1562.64 231.614 1560.86 229.836 1560.86 227.642C1560.86 225.448 1562.64 223.669 1564.83 223.669C1567.02 223.669 1568.8 225.448 1568.8 227.642C1568.8 229.836 1567.02 231.614 1564.83 231.614Z" fill="white"/>
<path fill-rule="evenodd" clip-rule="evenodd" d="M1487.51 167.576C1485.97 166.032 1483.47 166.032 1481.92 167.576C1480.38 169.121 1480.38 171.622 1481.92 173.167C1483.47 174.712 1485.97 174.712 1487.51 173.167C1489.06 171.622 1489.06 169.121 1487.51 167.576Z" fill="white"/>
<path fill-rule="evenodd" clip-rule="evenodd" d="M1617.76 280.535C1616.22 278.99 1613.72 278.99 1612.17 280.535C1610.63 282.079 1610.63 284.581 1612.17 286.125C1613.72 287.67 1616.22 287.67 1617.76 286.125C1619.31 284.581 1619.31 282.079 1617.76 280.535Z" fill="white"/>
<path fill-rule="evenodd" clip-rule="evenodd" d="M1605.48 321.657C1603.93 320.113 1601.43 320.113 1599.89 321.657C1598.34 323.202 1598.34 325.703 1599.89 327.248C1601.43 328.793 1603.93 328.793 1605.48 327.248C1607.02 325.74 1607.02 323.202 1605.48 321.657Z" fill="white"/>
<path fill-rule="evenodd" clip-rule="evenodd" d="M1592.6 176.919C1591.5 175.816 1589.73 175.816 1588.63 176.919C1587.53 178.023 1587.53 179.788 1588.63 180.892C1589.73 181.995 1591.5 181.995 1592.6 180.892C1593.67 179.788 1593.67 178.023 1592.6 176.919Z" fill="white"/>
<path fill-rule="evenodd" clip-rule="evenodd" d="M1436.82 104.385C1435.72 103.281 1433.96 103.281 1432.85 104.385C1431.75 105.488 1431.75 107.254 1432.85 108.357C1433.96 109.461 1435.72 109.461 1436.82 108.357C1437.89 107.254 1437.89 105.488 1436.82 104.385Z" fill="white"/>
<path fill-rule="evenodd" clip-rule="evenodd" d="M1459.19 126.123C1458.09 125.02 1456.32 125.02 1455.22 126.123C1454.11 127.226 1454.11 128.992 1455.22 130.096C1456.32 131.199 1458.09 131.199 1459.19 130.096C1460.29 128.992 1460.29 127.226 1459.19 126.123Z" fill="white"/>
<path fill-rule="evenodd" clip-rule="evenodd" d="M1541.84 286.935C1540.74 285.831 1538.97 285.831 1537.87 286.935C1536.76 288.038 1536.76 289.804 1537.87 290.907C1538.97 292.011 1540.74 292.011 1541.84 290.907C1542.94 289.804 1542.94 288.038 1541.84 286.935Z" fill="white"/>
<path fill-rule="evenodd" clip-rule="evenodd" d="M1669.55 216.239C1668.45 215.136 1666.68 215.136 1665.58 216.239C1664.48 217.342 1664.48 219.108 1665.58 220.211C1666.68 221.315 1668.45 221.315 1669.55 220.211C1670.62 219.108 1670.62 217.342 1669.55 216.239Z" fill="white"/>
<path fill-rule="evenodd" clip-rule="evenodd" d="M1550.12 325.078C1549.31 324.269 1548.02 324.269 1547.21 325.078C1546.4 325.887 1546.4 327.175 1547.21 327.984C1548.02 328.793 1549.31 328.793 1550.12 327.984C1550.93 327.175 1550.93 325.887 1550.12 325.078Z" fill="white"/>
<path d="M1532.2 368.812C1531.07 368.812 1530.14 367.89 1530.14 366.752C1530.14 365.615 1531.07 364.693 1532.2 364.693C1533.34 364.693 1534.26 365.615 1534.26 366.752C1534.26 367.89 1533.34 368.812 1532.2 368.812Z" fill="white"/>
<path fill-rule="evenodd" clip-rule="evenodd" d="M1612.46 312.793C1611.66 311.984 1610.37 311.984 1609.56 312.793C1608.75 313.602 1608.75 314.889 1609.56 315.699C1610.37 316.508 1611.66 316.508 1612.46 315.699C1613.27 314.889 1613.24 313.565 1612.46 312.793Z" fill="white"/>
<path fill-rule="evenodd" clip-rule="evenodd" d="M1582.01 232.497C1581.49 231.982 1580.65 231.982 1580.13 232.497C1579.62 233.012 1579.62 233.858 1580.13 234.373C1580.65 234.888 1581.49 234.888 1582.01 234.373C1582.52 233.821 1582.52 233.012 1582.01 232.497Z" fill="white"/>
<path fill-rule="evenodd" clip-rule="evenodd" d="M1536.54 294.108C1536.03 293.593 1535.18 293.593 1534.67 294.108C1534.15 294.622 1534.15 295.468 1534.67 295.983C1535.18 296.498 1536.03 296.498 1536.54 295.983C1537.06 295.432 1537.06 294.622 1536.54 294.108Z" fill="white"/>
<path fill-rule="evenodd" clip-rule="evenodd" d="M1602.42 311.175C1601.91 310.66 1601.06 310.66 1600.55 311.175C1600.03 311.69 1600.03 312.536 1600.55 313.051C1601.06 313.566 1601.91 313.566 1602.42 313.051C1602.94 312.536 1602.94 311.69 1602.42 311.175Z" fill="white"/>
<path fill-rule="evenodd" clip-rule="evenodd" d="M1455.36 282.411C1454.85 281.896 1454 281.896 1453.49 282.411C1452.97 282.926 1452.97 283.772 1453.49 284.287C1454 284.801 1454.85 284.801 1455.36 284.287C1455.88 283.772 1455.88 282.926 1455.36 282.411Z" fill="white"/>
<path fill-rule="evenodd" clip-rule="evenodd" d="M1415.27 272.627C1414.75 272.112 1413.91 272.112 1413.39 272.627C1412.88 273.142 1412.88 273.988 1413.39 274.502C1413.91 275.017 1414.75 275.017 1415.27 274.502C1415.78 273.951 1415.78 273.142 1415.27 272.627Z" fill="white"/>
<path fill-rule="evenodd" clip-rule="evenodd" d="M1515.61 271.302C1515.1 270.788 1514.25 270.788 1513.74 271.302C1513.22 271.817 1513.22 272.663 1513.74 273.178C1514.25 273.693 1515.1 273.693 1515.61 273.178C1516.13 272.627 1516.13 271.817 1515.61 271.302Z" fill="white"/>
<path fill-rule="evenodd" clip-rule="evenodd" d="M1533.16 264.939C1532.65 264.424 1531.8 264.424 1531.28 264.939C1530.77 265.454 1530.77 266.3 1531.28 266.815C1531.8 267.33 1532.65 267.33 1533.16 266.815C1533.68 266.3 1533.68 265.454 1533.16 264.939Z" fill="white"/>
<path fill-rule="evenodd" clip-rule="evenodd" d="M1650.46 284.397C1649.95 283.882 1649.1 283.882 1648.59 284.397C1648.07 284.912 1648.07 285.758 1648.59 286.273C1649.1 286.788 1649.95 286.788 1650.46 286.273C1650.98 285.721 1650.98 284.912 1650.46 284.397Z" fill="white"/>
<path d="M1536.43 276.893C1536.07 276.893 1535.77 276.597 1535.77 276.231C1535.77 275.866 1536.07 275.569 1536.43 275.569C1536.8 275.569 1537.1 275.866 1537.1 276.231C1537.1 276.597 1536.8 276.893 1536.43 276.893Z" fill="white"/>
<path fill-rule="evenodd" clip-rule="evenodd" d="M1611.47 309.666C1611.21 309.409 1610.81 309.409 1610.55 309.666C1610.29 309.924 1610.29 310.328 1610.55 310.586C1610.81 310.843 1611.21 310.843 1611.47 310.586C1611.73 310.328 1611.73 309.924 1611.47 309.666Z" fill="white"/>
<path fill-rule="evenodd" clip-rule="evenodd" d="M1555.52 287.303C1555.01 286.788 1554.16 286.788 1553.65 287.303C1553.13 287.818 1553.13 288.664 1553.65 289.179C1554.16 289.694 1555.01 289.694 1555.52 289.179C1556.04 288.664 1556.04 287.818 1555.52 287.303Z" fill="white"/>
<path fill-rule="evenodd" clip-rule="evenodd" d="M1636.01 308.526C1635.49 308.011 1634.65 308.011 1634.13 308.526C1633.62 309.041 1633.62 309.887 1634.13 310.402C1634.65 310.917 1635.49 310.917 1636.01 310.402C1636.52 309.887 1636.52 309.041 1636.01 308.526Z" fill="white"/>
<path fill-rule="evenodd" clip-rule="evenodd" d="M1357.26 210.979C1356.75 210.464 1355.9 210.464 1355.39 210.979C1354.87 211.494 1354.87 212.34 1355.39 212.855C1355.9 213.37 1356.75 213.37 1357.26 212.855C1357.78 212.34 1357.78 211.494 1357.26 210.979Z" fill="white"/>
<path fill-rule="evenodd" clip-rule="evenodd" d="M1569.72 378.082C1569.21 377.567 1568.36 377.567 1567.85 378.082C1567.33 378.596 1567.33 379.442 1567.85 379.957C1568.36 380.472 1569.21 380.472 1569.72 379.957C1570.24 379.442 1570.24 378.596 1569.72 378.082Z" fill="white"/>
<path fill-rule="evenodd" clip-rule="evenodd" d="M1598.27 345.456C1597.75 344.941 1596.91 344.941 1596.39 345.456C1595.88 345.97 1595.88 346.816 1596.39 347.331C1596.91 347.846 1597.75 347.846 1598.27 347.331C1598.78 346.816 1598.78 345.97 1598.27 345.456Z" fill="white"/>
<path opacity="0.6" fill-rule="evenodd" clip-rule="evenodd" d="M1695.83 48C1695.83 48 1663.79 93.6468 1640.88 106.888C1617.96 120.13 1588.98 125.794 1578.13 139.036C1567.27 152.278 1525.34 182.586 1525.34 182.586L1465.09 207.488C1465.09 207.488 1547.08 138.153 1556.09 122.043C1565.07 105.932 1589.2 92.6905 1589.2 92.6905L1695.83 48Z" fill="#FFDCBB" fill-opacity="0.2"/>
<mask id="mask0" mask-type="alpha" maskUnits="userSpaceOnUse" x="0" y="0" width="829" height="464">
<rect width="829" height="464" fill="#C4C4C4"/>
</mask>
<g mask="url(#mask0)">
<g opacity="0.3">
<path opacity="0.4" fill-rule="evenodd" clip-rule="evenodd" d="M-110 -22.1317C-110 -22.1317 -57.8569 102.481 -12.1496 174.94C27.8884 222.986 88.3586 278.268 178.663 328.901C191.298 339.855 225.303 339.048 236.526 350.54C247.783 362.032 267.944 367.072 282.057 382.73C296.17 398.355 342.944 409.88 358.905 428.327C374.866 446.774 401.983 454.334 415.626 462.668C429.302 471.001 471.641 491.161 471.641 491.161C471.641 491.161 419.927 466.968 411.493 442.742C403.059 418.549 407.864 388.375 407.864 388.375C407.864 388.375 418.717 385.989 407.864 365.963C397.01 345.937 406.083 333.168 392.474 316.334C378.865 299.534 372.38 269.259 381.654 255.146C390.928 241.034 412.635 199.604 407.83 174.94C403.059 150.277 445.129 132.132 445.129 132.132C445.129 132.132 508.771 138.181 516.399 148.261C524.06 158.341 580.041 174.94 580.041 174.94C580.041 174.94 624.799 177.427 630.881 174.94C636.963 172.454 656.15 188.616 671.775 202.729C687.4 216.841 690.425 208.239 712.132 223.36C733.839 238.48 737.972 261.295 750.438 272.384C750.438 272.384 736.493 248.023 732.125 223.36C732.125 223.36 754.403 225.813 770.566 229.845C786.695 233.877 794.423 232.97 805.579 241.504C816.735 250.005 829 255.415 829 255.415C829 255.415 810.116 238.379 805.579 228.971C801.043 219.563 797.448 210.154 791.634 206.559C785.821 202.964 719.894 186.331 702.992 178.536C686.09 170.707 671.809 144.934 671.809 144.934C671.809 144.934 633.166 90.6349 608.771 89.7949C584.376 88.9549 541.634 77.2281 526.076 66.2741C510.586 55.2865 477.723 47.6871 477.723 47.6871C445.129 34.4303 381 -51.3405 358.905 -56.6432C336.811 -61.9459 282.057 -56.6431 282.057 -56.6431H178.663L102.991 -22.1317H-110Z" fill="url(#paint1_linear)"/>
<path fill-rule="evenodd" clip-rule="evenodd" d="M448.548 198.234C448.548 200.15 447.002 201.695 445.087 201.695C443.171 201.695 441.625 200.15 441.625 198.234C441.625 196.319 443.171 194.773 445.087 194.773C447.002 194.773 448.548 196.319 448.548 198.234Z" fill="white"/>
<path fill-rule="evenodd" clip-rule="evenodd" d="M330.402 12.7557C330.402 14.671 328.857 16.2166 326.941 16.2166C325.026 16.2166 323.48 14.671 323.48 12.7557C323.48 10.8404 325.026 9.2948 326.941 9.2948C328.857 9.2948 330.402 10.8404 330.402 12.7557Z" fill="white"/>
<path fill-rule="evenodd" clip-rule="evenodd" d="M195.086 132.578C195.086 134.493 193.54 136.038 191.625 136.038C189.71 136.038 188.164 134.493 188.164 132.578C188.164 130.662 189.71 129.117 191.625 129.117C193.54 129.083 195.086 130.662 195.086 132.578Z" fill="white"/>
<path d="M37.3578 6.50583C39.2692 6.50583 40.8188 4.95632 40.8188 3.04491C40.8188 1.13349 39.2692 -0.416016 37.3578 -0.416016C35.4463 -0.416016 33.8967 1.13349 33.8967 3.04491C33.8967 4.95632 35.4463 6.50583 37.3578 6.50583Z" fill="white"/>
<path d="M53.9495 112.985C54.3907 111.125 53.2406 109.26 51.3807 108.819C49.5209 108.378 47.6555 109.528 47.2143 111.388C46.7732 113.247 47.9232 115.113 49.7831 115.554C51.643 115.995 53.5083 114.845 53.9495 112.985Z" fill="white"/>
<path fill-rule="evenodd" clip-rule="evenodd" d="M445.087 132.578C445.087 134.493 443.541 136.038 441.626 136.038C439.71 136.038 438.165 134.493 438.165 132.578C438.165 130.662 439.71 129.117 441.626 129.117C443.507 129.083 445.087 130.662 445.087 132.578Z" fill="white"/>
<path fill-rule="evenodd" clip-rule="evenodd" d="M191.625 71.3226C191.625 73.2379 190.079 74.7835 188.164 74.7835C186.249 74.7835 184.703 73.2379 184.703 71.3226C184.703 69.4074 186.249 67.8617 188.164 67.8617C190.079 67.8617 191.625 69.4074 191.625 71.3226Z" fill="white"/>
<path d="M493.063 214.248C494.021 213.29 494.021 211.737 493.063 210.779C492.105 209.821 490.552 209.821 489.594 210.779C488.636 211.737 488.636 213.29 489.594 214.248C490.552 215.206 492.105 215.206 493.063 214.248Z" fill="white"/>
<path fill-rule="evenodd" clip-rule="evenodd" d="M155.537 132.578C155.537 133.922 154.428 135.03 153.084 135.03C151.739 135.03 150.631 133.922 150.631 132.578C150.631 131.233 151.739 130.125 153.084 130.125C154.461 130.125 155.537 131.2 155.537 132.578Z" fill="white"/>
<path fill-rule="evenodd" clip-rule="evenodd" d="M269.671 209.102C269.671 211.085 268.058 212.731 266.042 212.731C264.059 212.731 262.413 211.118 262.413 209.102C262.413 207.12 264.026 205.473 266.042 205.473C268.058 205.473 269.671 207.086 269.671 209.102Z" fill="white"/>
<path fill-rule="evenodd" clip-rule="evenodd" d="M239.496 242.267C239.496 244.25 237.883 245.896 235.867 245.896C233.884 245.896 232.238 244.283 232.238 242.267C232.238 240.285 233.851 238.638 235.867 238.638C237.883 238.672 239.496 240.285 239.496 242.267Z" fill="white"/>
<path fill-rule="evenodd" clip-rule="evenodd" d="M98.7029 366.961C98.7029 368.943 97.09 370.59 95.0739 370.59C93.0913 370.59 91.4448 368.977 91.4448 366.961C91.4448 364.978 93.0577 363.332 95.0739 363.332C97.09 363.332 98.7029 364.945 98.7029 366.961Z" fill="white"/>
<path fill-rule="evenodd" clip-rule="evenodd" d="M57.5404 366.961C57.5404 368.372 56.3979 369.514 54.9866 369.514C53.5753 369.514 52.4329 368.372 52.4329 366.961C52.4329 365.549 53.5753 364.407 54.9866 364.407C56.3979 364.407 57.5404 365.549 57.5404 366.961Z" fill="white"/>
<path fill-rule="evenodd" clip-rule="evenodd" d="M27.9365 255.707C27.9365 256.749 27.0965 257.589 26.0548 257.589C25.0131 257.589 24.1731 256.749 24.1731 255.707C24.1731 254.666 25.0131 253.826 26.0548 253.826C27.0965 253.826 27.9365 254.666 27.9365 255.707Z" fill="white"/>
<path fill-rule="evenodd" clip-rule="evenodd" d="M309.691 422.268C309.691 422.604 309.422 422.873 309.086 422.873C308.75 422.873 308.481 422.604 308.481 422.268C308.481 421.932 308.75 421.663 309.086 421.663C309.422 421.663 309.691 421.932 309.691 422.268Z" fill="white"/>
<path fill-rule="evenodd" clip-rule="evenodd" d="M195.612 422.873C195.612 423.209 195.343 423.478 195.007 423.478C194.671 423.478 194.402 423.209 194.402 422.873C194.402 422.537 194.671 422.268 195.007 422.268C195.343 422.268 195.612 422.537 195.612 422.873Z" fill="white"/>
<path fill-rule="evenodd" clip-rule="evenodd" d="M37.278 424.62C37.278 424.956 37.0092 425.225 36.6732 425.225C36.3372 425.225 36.0684 424.956 36.0684 424.62C36.0684 424.284 36.3372 424.016 36.6732 424.016C37.0092 424.016 37.278 424.284 37.278 424.62Z" fill="white"/>
<path fill-rule="evenodd" clip-rule="evenodd" d="M314.261 402.746C314.261 403.418 313.723 403.956 313.051 403.956C312.379 403.956 311.842 403.418 311.842 402.746C311.842 402.074 312.379 401.536 313.051 401.536C313.723 401.536 314.261 402.107 314.261 402.746Z" fill="white"/>
<path fill-rule="evenodd" clip-rule="evenodd" d="M258.986 401.536C258.986 402.208 258.448 402.746 257.776 402.746C257.104 402.746 256.566 402.208 256.566 401.536C256.566 400.864 257.104 400.327 257.776 400.327C258.448 400.36 258.986 400.898 258.986 401.536Z" fill="white"/>
<path fill-rule="evenodd" clip-rule="evenodd" d="M30.3559 350.563C30.3559 351.235 29.8182 351.773 29.1462 351.773C28.4742 351.773 27.9365 351.235 27.9365 350.563C27.9365 349.891 28.4742 349.354 29.1462 349.354C29.8182 349.354 30.3559 349.891 30.3559 350.563Z" fill="white"/>
<path fill-rule="evenodd" clip-rule="evenodd" d="M282.07 257.589C282.07 258.261 281.532 258.799 280.86 258.799C280.188 258.799 279.651 258.261 279.651 257.589C279.651 256.917 280.188 256.379 280.86 256.379C281.532 256.379 282.07 256.917 282.07 257.589Z" fill="white"/>
<path fill-rule="evenodd" clip-rule="evenodd" d="M236.774 178.962C236.774 179.634 236.236 180.171 235.564 180.171C234.892 180.171 234.354 179.634 234.354 178.962C234.354 178.29 234.892 177.752 235.564 177.752C236.236 177.752 236.774 178.29 236.774 178.962Z" fill="white"/>
<path fill-rule="evenodd" clip-rule="evenodd" d="M219.133 442.16C219.133 442.832 218.595 443.37 217.923 443.37C217.251 443.37 216.713 442.832 216.713 442.16C216.713 441.488 217.251 440.951 217.923 440.951C218.595 440.951 219.133 441.488 219.133 442.16Z" fill="white"/>
<path fill-rule="evenodd" clip-rule="evenodd" d="M24.207 349.354C24.207 350.026 23.6693 350.563 22.9973 350.563C22.3252 350.563 21.7876 350.026 21.7876 349.354C21.7876 348.682 22.3252 348.144 22.9973 348.144C23.6693 348.144 24.207 348.682 24.207 349.354Z" fill="white"/>
<path fill-rule="evenodd" clip-rule="evenodd" d="M4.24675 279.396C4.24675 280.068 3.70912 280.606 3.03708 280.606C2.36503 280.606 1.82739 280.068 1.82739 279.396C1.82739 278.724 2.36503 278.187 3.03708 278.187C3.70912 278.187 4.24675 278.724 4.24675 279.396Z" fill="white"/>
<path fill-rule="evenodd" clip-rule="evenodd" d="M107.91 212.697C107.91 213.369 107.372 213.907 106.7 213.907C106.028 213.907 105.49 213.369 105.49 212.697C105.49 212.025 106.028 211.488 106.7 211.488C107.372 211.488 107.91 212.025 107.91 212.697Z" fill="white"/>
<path fill-rule="evenodd" clip-rule="evenodd" d="M208.649 181.348C208.649 182.02 208.111 182.557 207.439 182.557C206.767 182.557 206.23 182.02 206.23 181.348C206.23 180.676 206.767 180.138 207.439 180.138C208.111 180.172 208.649 180.709 208.649 181.348Z" fill="white"/>
<path fill-rule="evenodd" clip-rule="evenodd" d="M22.9972 277.011C22.9972 277.683 22.4596 278.22 21.7876 278.22C21.1155 278.22 20.5779 277.683 20.5779 277.011C20.5779 276.339 21.1155 275.801 21.7876 275.801C22.4596 275.801 22.9972 276.339 22.9972 277.011Z" fill="white"/>
<path fill-rule="evenodd" clip-rule="evenodd" d="M43.0239 261.251C43.0239 261.923 42.4862 262.461 41.8142 262.461C41.1421 262.461 40.6045 261.923 40.6045 261.251C40.6045 260.579 41.1421 260.042 41.8142 260.042C42.4862 260.042 43.0239 260.579 43.0239 261.251Z" fill="white"/>
<path fill-rule="evenodd" clip-rule="evenodd" d="M40.2685 199.089C40.2685 199.761 39.7308 200.299 39.0588 200.299C38.3868 200.299 37.8491 199.761 37.8491 199.089C37.8491 198.417 38.3868 197.88 39.0588 197.88C39.7308 197.88 40.2685 198.451 40.2685 199.089Z" fill="white"/>
<path fill-rule="evenodd" clip-rule="evenodd" d="M53.1715 391.792C54.1796 390.784 55.7925 390.784 56.8005 391.792C57.8086 392.8 57.8086 394.413 56.8005 395.421C55.7925 396.429 54.1796 396.429 53.1715 395.421C52.1971 394.413 52.1971 392.8 53.1715 391.792Z" fill="white"/>
<path d="M393.897 176.274C394.207 174.955 393.39 173.635 392.071 173.325C390.752 173.014 389.432 173.832 389.122 175.15C388.811 176.469 389.629 177.79 390.948 178.1C392.266 178.41 393.587 177.593 393.897 176.274Z" fill="white"/>
<path fill-rule="evenodd" clip-rule="evenodd" d="M515.281 36.2428C515.281 37.5868 514.172 38.6957 512.828 38.6957C511.484 38.6957 510.375 37.5868 510.375 36.2428C510.375 34.8988 511.484 33.7899 512.828 33.7899C514.172 33.7899 515.281 34.8988 515.281 36.2428Z" fill="white"/>
<path fill-rule="evenodd" clip-rule="evenodd" d="M517.13 140.339C517.13 141.684 516.021 142.792 514.677 142.792C513.333 142.792 512.224 141.684 512.224 140.339C512.224 138.995 513.333 137.887 514.677 137.887C516.021 137.887 517.13 138.995 517.13 140.339Z" fill="white"/>
<path fill-rule="evenodd" clip-rule="evenodd" d="M375.463 146.925C375.463 147.934 374.656 148.74 373.648 148.74C372.64 148.74 371.833 147.934 371.833 146.925C371.833 145.917 372.64 145.111 373.648 145.111C374.622 145.111 375.463 145.917 375.463 146.925Z" fill="white"/>
<path fill-rule="evenodd" clip-rule="evenodd" d="M254.529 120.346C254.529 121.354 253.722 122.161 252.714 122.161C251.706 122.161 250.9 121.354 250.9 120.346C250.9 119.338 251.706 118.532 252.714 118.532C253.722 118.532 254.529 119.338 254.529 120.346Z" fill="white"/>
<path fill-rule="evenodd" clip-rule="evenodd" d="M93.5406 172.832C93.5406 173.84 92.7342 174.646 91.7261 174.646C90.7181 174.646 89.9116 173.84 89.9116 172.832C89.9116 171.824 90.7181 171.017 91.7261 171.017C92.7342 171.017 93.5406 171.824 93.5406 172.832Z" fill="white"/>
<path fill-rule="evenodd" clip-rule="evenodd" d="M93.5406 131.502C93.5406 132.51 92.7342 133.317 91.7261 133.317C90.7181 133.317 89.9116 132.51 89.9116 131.502C89.9116 130.494 90.7181 129.688 91.7261 129.688C92.7342 129.722 93.5406 130.528 93.5406 131.502Z" fill="white"/>
<path fill-rule="evenodd" clip-rule="evenodd" d="M127.109 25.6583C127.109 26.6664 126.303 27.4728 125.295 27.4728C124.287 27.4728 123.48 26.6664 123.48 25.6583C123.48 24.6503 124.287 23.8439 125.295 23.8439C126.303 23.8439 127.109 24.6503 127.109 25.6583Z" fill="white"/>
<path fill-rule="evenodd" clip-rule="evenodd" d="M224.891 -0.41591C224.891 0.222513 224.387 0.726534 223.749 0.726534C223.11 0.726534 222.606 0.222513 222.606 -0.41591C222.606 -1.05433 223.11 -1.55835 223.749 -1.55835C224.354 -1.55835 224.891 -1.05433 224.891 -0.41591Z" fill="white"/>
<path fill-rule="evenodd" clip-rule="evenodd" d="M314.743 99.5135C314.743 101.496 313.131 103.142 311.114 103.142C309.132 103.142 307.485 101.53 307.485 99.5135C307.485 97.531 309.098 95.8845 311.114 95.8845C313.131 95.8845 314.743 97.4974 314.743 99.5135Z" fill="white"/>
<path fill-rule="evenodd" clip-rule="evenodd" d="M291.639 153.889C291.639 155.871 290.026 157.518 288.01 157.518C286.028 157.518 284.381 155.905 284.381 153.889C284.381 151.906 285.994 150.26 288.01 150.26C290.026 150.294 291.639 151.906 291.639 153.889Z" fill="white"/>
<path fill-rule="evenodd" clip-rule="evenodd" d="M143.776 257.372C143.776 259.354 142.163 261.001 140.147 261.001C138.164 261.001 136.518 259.388 136.518 257.372C136.518 255.389 138.13 253.743 140.147 253.743C142.163 253.743 143.776 255.356 143.776 257.372Z" fill="white"/>
<path fill-rule="evenodd" clip-rule="evenodd" d="M73.0093 146.118C73.0093 147.16 72.1692 148 71.1276 148C70.0859 148 69.2458 147.16 69.2458 146.118C69.2458 145.077 70.0859 144.237 71.1276 144.237C72.1692 144.237 73.0093 145.077 73.0093 146.118Z" fill="white"/>
<path fill-rule="evenodd" clip-rule="evenodd" d="M98.2443 282.203C99.2523 281.195 100.865 281.195 101.873 282.203C102.881 283.211 102.881 284.824 101.873 285.832C100.865 286.84 99.2523 286.84 98.2443 285.832C97.2698 284.824 97.2698 283.211 98.2443 282.203Z" fill="white"/>
</g>
</g>
<defs>
<linearGradient id="paint0_linear" x1="900.5" y1="0" x2="900.5" y2="464" gradientUnits="userSpaceOnUse">
<stop stop-color="#0F3267"/>
<stop offset="0.0722513" stop-color="#372956"/>
<stop offset="0.220942" stop-color="#562148"/>
<stop offset="0.543455" stop-color="#A62E43"/>
<stop offset="1" stop-color="#FB7E68"/>
</linearGradient>
<linearGradient id="paint1_linear" x1="466.046" y1="491.144" x2="466.046" y2="33.5457" gradientUnits="userSpaceOnUse">
<stop stop-color="#FDD3A0"/>
<stop offset="1" stop-color="#FDAF7E"/>
</linearGradient>
</defs>
</svg>
